<?xml version="1.0" encoding="UTF-8"?>
<svg version="1.1" xmlns="http://www.w3.org/2000/svg" width="1080" height="1080">
<path d="M0 0 C356.4 0 712.8 0 1080 0 C1080 356.4 1080 712.8 1080 1080 C723.6 1080 367.2 1080 0 1080 C0 723.6 0 367.2 0 0 Z " fill="#000000" transform="translate(0,0)"/>
<path d="M0 0 C14.52 0 29.04 0 44 0 C44.01458252 3.95677734 44.02916504 7.91355469 44.04418945 11.99023438 C44.09453515 25.06606722 44.16098065 38.14177673 44.23571491 51.21749115 C44.28063172 59.14498055 44.32005581 67.07242545 44.34643555 75 C44.36944904 81.91173183 44.40288432 88.82332231 44.44870156 95.73494196 C44.47258879 99.39274836 44.49134695 103.05041517 44.49761391 106.70829773 C44.50481509 110.79727018 44.53528886 114.8857584 44.56762695 118.97460938 C44.56619186 120.18014465 44.56475677 121.38567993 44.5632782 122.62774658 C44.50928806 132.50782275 44.50928806 132.50782275 49 141 C54.17735677 141.37052339 54.17735677 141.37052339 59 140 C61.60916786 133.50755944 61.30659647 126.90677772 61.31884766 119.99633789 C61.33391609 118.04896729 61.33391609 118.04896729 61.34928894 116.06225586 C61.37648345 112.51940733 61.39170685 108.97659834 61.40471697 105.43367314 C61.42039392 101.72473342 61.44716949 98.01587386 61.4727478 94.30699158 C61.51945503 87.29135184 61.556238 80.27569689 61.58942068 73.25998157 C61.62769914 65.26959514 61.67709423 57.27928939 61.72740483 49.28897107 C61.83060483 32.85936658 61.91843656 16.42972831 62 0 C76.52 0 91.04 0 106 0 C106.09063531 17.04745567 106.16417553 34.09470255 106.20724869 51.14233303 C106.22778855 59.05957666 106.25574286 66.97665888 106.30175781 74.89379883 C106.34189065 81.80223796 106.36749496 88.71056007 106.37635398 95.61911255 C106.38152451 99.27006638 106.39349274 102.92068573 106.42292023 106.5715313 C106.72444186 145.51125806 106.72444186 145.51125806 97 159 C96.57074219 159.62003906 96.14148438 160.24007812 95.69921875 160.87890625 C88.93930522 169.69535685 78.95104011 173.26833175 68.453125 175.5546875 C51.31414082 177.76491849 33.10614933 177.46219783 18.25 167.76171875 C6.37668972 158.46508171 2.4558208 146.49882775 0.34724426 132.10667419 C-0.80792856 121.77174294 -0.49250159 111.3068549 -0.40557575 100.92326832 C-0.38015782 97.36129281 -0.37818894 93.79929587 -0.37347412 90.23724365 C-0.36116064 83.52645557 -0.32850107 76.81593568 -0.28807616 70.10526443 C-0.24299072 62.45081274 -0.22128009 54.7963466 -0.20129442 47.14179468 C-0.15975433 31.42768245 -0.0865525 15.71393858 0 0 Z " fill="#030303" transform="translate(390,370)"/>
<path d="M0 0 C55.20382166 0 55.20382166 0 65.375 4.375 C66.33148437 4.77460937 67.28796875 5.17421875 68.2734375 5.5859375 C76.03917177 9.61343866 80.35278145 15.48023261 83.12353516 23.6027832 C85.67429198 32.20053482 85.5419798 40.53487575 85.4609375 49.41796875 C85.45854616 51.16905074 85.45764921 52.92013533 85.4581604 54.67121887 C85.45505396 58.31800707 85.43865314 61.96439614 85.41162109 65.61108398 C85.37756865 70.26087427 85.36999613 74.91022969 85.37151146 79.56013012 C85.37096512 83.16775074 85.35995697 86.77527833 85.34550858 90.38286781 C85.33919383 92.09669608 85.33521432 93.81053476 85.33372116 95.52437401 C85.30841795 109.37643327 85.25854595 124.13889919 75.1796875 134.953125 C55.06978747 151.07361166 21.67970517 145 0 145 C0 97.15 0 49.3 0 0 Z " fill="#FDFDFD" transform="translate(693,582)"/>
<path d="M0 0 C63.42280285 0 63.42280285 0 74.96875 9.64453125 C80.44762329 15.15822788 82.17827116 21.59555376 84 29 C84.26548393 29.86588745 84.26548393 29.86588745 84.53633118 30.74926758 C85.17381693 33.84373887 85.13564312 36.8055409 85.14526367 39.96484375 C85.14862228 40.65816299 85.1519809 41.35148224 85.15544128 42.06581116 C85.16493218 44.35639242 85.16689411 46.6469003 85.16796875 48.9375 C85.17118492 50.53971384 85.17454926 52.14192739 85.17805481 53.74414062 C85.18404307 57.10661498 85.18589525 60.46906366 85.18530273 63.83154297 C85.18520166 68.11030377 85.19879868 72.3888966 85.21607494 76.6676178 C85.22727969 79.98106621 85.22921929 83.29447527 85.22869301 86.60794067 C85.22986252 88.18336562 85.23422553 89.75879193 85.24202538 91.334198 C85.3760904 121.23462656 85.3760904 121.23462656 75.98828125 132.390625 C56.2271079 151.0137203 23.83091279 144 0 144 C0 96.48 0 48.96 0 0 Z " fill="#FDFDFD" transform="translate(509,583)"/>
<path d="M0 0 C1.02996094 -0.020625 2.05992187 -0.04125 3.12109375 -0.0625 C14.83643193 -0.1214451 25.15274345 2.35756332 34 10.3125 C44.83110526 21.67907563 44.68149599 37.17900971 44.640625 51.83984375 C44.64197482 53.55180415 44.64391798 55.26376417 44.64642334 56.97572327 C44.64936049 60.55213087 44.64512304 64.12843811 44.63574219 67.70483398 C44.62435719 72.26503222 44.63091007 76.82499471 44.64288712 81.38518429 C44.65015131 84.91729982 44.64779681 88.44936046 44.64263153 91.98147774 C44.64130716 93.66182038 44.64289971 95.34216818 44.64759064 97.02250481 C44.6821841 112.8958879 43.4750039 126.96455879 32.375 139.25 C23.85183463 147.68344784 12.03311354 148.61032513 0.6875 148.6875 C-0.27414062 148.6975708 -1.23578125 148.7076416 -2.2265625 148.71801758 C-12.94455232 148.5884534 -22.49090024 145.86014541 -30.5 138.53515625 C-42.65969079 125.72030971 -42.94305576 109.24607436 -42.92578125 92.56640625 C-42.92968065 90.97802115 -42.93401781 89.38963706 -42.93876648 87.80125427 C-42.94617754 84.4907593 -42.94597454 81.18037107 -42.94067383 77.86987305 C-42.93488019 73.66308306 -42.95183261 69.45673351 -42.9750185 65.25001621 C-42.98986831 61.97512837 -42.99061249 58.70034395 -42.98750877 55.42542839 C-42.98801616 53.8759467 -42.9931421 52.3264583 -43.00332069 50.77700996 C-43.08725349 36.21988775 -41.84286288 21.56011048 -31.7734375 10.15234375 C-22.42715734 1.38322431 -12.32422987 0.06033895 0 0 Z " fill="#FDFDFD" transform="translate(444.625,580.75)"/>
<path d="M0 0 C14.19 0 28.38 0 43 0 C47.15687606 12.95967241 51.23592851 25.92115253 55 39 C56.95653509 36.06519737 57.58923152 34.21552232 58.40234375 30.84375 C58.65306641 29.82023437 58.90378906 28.79671875 59.16210938 27.7421875 C59.41798828 26.67226563 59.67386719 25.60234375 59.9375 24.5 C65.52149877 1.47850123 65.52149877 1.47850123 67 0 C70.02977804 -0.08871273 73.03667022 -0.1151935 76.06640625 -0.09765625 C76.97502914 -0.0962413 77.88365204 -0.09482635 78.81980896 -0.09336853 C81.73407221 -0.08775193 84.64825981 -0.07519665 87.5625 -0.0625 C89.53320202 -0.05748714 91.50390524 -0.05292386 93.47460938 -0.04882812 C98.31643559 -0.03777711 103.15820495 -0.02050138 108 0 C105.84175557 9.31090882 103.0465777 18.36577103 100.0625 27.4375 C99.19755319 30.08148881 98.33483118 32.72619992 97.47265625 35.37109375 C97.15795631 36.33498268 97.15795631 36.33498268 96.8368988 37.31834412 C94.81701416 43.52309467 92.90062404 49.75791013 91 56 C90.27334565 58.35494335 89.54456516 60.70923305 88.8125 63.0625 C88.63009262 63.6724884 88.44768524 64.28247681 88.25975037 64.91094971 C86.94381593 69.23354428 85.4563638 73.43343694 83.79394531 77.63549805 C76.35794769 97.23941369 75.71340567 115.45611711 75.91845703 136.22619629 C75.95647286 141.26451243 75.92598492 146.30288109 75.90778351 151.34124756 C75.88776246 158.89541764 75.9514682 166.44456962 76 174 C61.81 174 47.62 174 33 174 C33.05542969 169.11316406 33.11085938 164.22632813 33.16796875 159.19140625 C33.17862332 156.01473439 33.18590432 152.83871254 33.18164062 149.66210938 C33.17523808 144.66672802 33.17846236 139.67332931 33.25708008 134.6784668 C33.60105593 111.67195218 30.69937096 92.71071487 22.2502594 71.27227783 C20.60035975 66.95402993 19.28109716 62.58090129 18.0625 58.125 C16.5946697 52.95865821 14.92951739 47.95872341 13.03125 42.9375 C11.45123036 38.436838 10.17495852 33.85257281 8.85986328 29.26879883 C7.67475705 25.17666448 6.38657598 21.17413741 4.875 17.1875 C2.85070355 11.58694649 1.44433937 5.77735748 0 0 Z " fill="#020202" transform="translate(681,370)"/>
<path d="M0 0 C26.07 0 52.14 0 79 0 C79 10.89 79 21.78 79 33 C67.45 33 55.9 33 44 33 C44 44.22 44 55.44 44 67 C54.23 67 64.46 67 75 67 C75 77.89 75 88.78 75 100 C64.77 100 54.54 100 44 100 C44 124.42 44 148.84 44 174 C29.48 174 14.96 174 0 174 C0 116.58 0 59.16 0 0 Z " fill="#020202" transform="translate(303,370)"/>
<path d="M0 0 C5.61 0 11.22 0 17 0 C17 100.65 17 201.3 17 305 C-83.98 305 -184.96 305 -289 305 C-289 299.72 -289 294.44 -289 289 C-193.63 289 -98.26 289 0 289 C0 193.63 0 98.26 0 0 Z " fill="#F9F9F9" transform="translate(892,585)"/>
<path d="M0 0 C100.65 0 201.3 0 305 0 C305 5.28 305 10.56 305 16 C209.63 16 114.26 16 16 16 C16 111.37 16 206.74 16 305 C10.72 305 5.44 305 0 305 C0 204.35 0 103.7 0 0 Z " fill="#FEFEFE" transform="translate(153,190)"/>
<path d="M0 0 C1.60101563 0.00193359 1.60101563 0.00193359 3.234375 0.00390625 C13.41655656 0.11648565 23.69724118 1.20585212 31.51171875 8.3203125 C44.19253643 21.77463662 43.60824354 36.88173418 43.375 54.375 C32.815 54.375 22.255 54.375 11.375 54.375 C11.0625 42.1875 11.0625 42.1875 10.98706055 38.37036133 C10.95394775 37.3677124 10.92083496 36.36506348 10.88671875 35.33203125 C10.86053467 34.31085205 10.83435059 33.28967285 10.80737305 32.23754883 C10.26963411 28.67741951 8.94210071 25.94210071 6.375 23.375 C4.75247508 23.27613647 3.12552727 23.24528833 1.5 23.25 C0.61570312 23.24742187 -0.26859375 23.24484375 -1.1796875 23.2421875 C-3.76406291 23.27451415 -3.76406291 23.27451415 -6.625 24.375 C-8.46854315 29.93673214 -8.91899873 35.06155936 -8.8996582 40.88305664 C-8.90476913 41.69228073 -8.90988007 42.50150482 -8.91514587 43.33525085 C-8.9289405 45.98529648 -8.92809331 48.6350792 -8.92578125 51.28515625 C-8.92967271 53.14025467 -8.93400831 54.99535221 -8.93876648 56.85044861 C-8.94620612 60.72788388 -8.94595306 64.60522805 -8.94067383 68.48266602 C-8.93487103 73.44120796 -8.95184071 78.39937736 -8.9750185 83.3578577 C-8.98977496 87.18495345 -8.99062513 91.01195975 -8.98750877 94.8390789 C-8.98802065 96.66704485 -8.99323329 98.49501599 -9.00332069 100.32295418 C-9.01571008 102.88099323 -9.00887957 105.4383097 -8.99731445 107.99633789 C-9.00495819 108.74406464 -9.01260193 109.49179138 -9.02047729 110.26217651 C-8.96921411 115.41348253 -7.9890221 118.88993181 -5.625 123.375 C-3.1808206 124.5970897 -1.41470128 124.61141068 1.3125 124.6875 C2.18777344 124.72488281 3.06304687 124.76226563 3.96484375 124.80078125 C6.49675729 124.59247503 6.49675729 124.59247503 8.12890625 122.60546875 C10.25327119 118.80292209 10.52371764 115.26511777 10.69140625 110.953125 C10.72951416 110.02918945 10.76762207 109.10525391 10.80688477 108.15332031 C10.84998779 106.98897461 10.89309082 105.82462891 10.9375 104.625 C11.081875 100.9125 11.22625 97.2 11.375 93.375 C21.605 93.375 31.835 93.375 42.375 93.375 C43.12765728 127.05641339 43.12765728 127.05641339 32.375 138.375 C23.15200178 147.3930427 12.95886665 148.59659853 0.67797852 148.5534668 C-10.35675524 148.42386952 -21.09578227 147.21627333 -29.6640625 139.55078125 C-41.37812617 126.86469953 -42.09605529 111.31652552 -42.05859375 94.90625 C-42.0631665 93.13610639 -42.06847528 91.36596454 -42.07447815 89.5958252 C-42.08336137 85.90446716 -42.0810404 82.21332604 -42.07104492 78.52197266 C-42.05954941 73.8217308 -42.07980014 69.12223964 -42.10896206 64.42209625 C-42.12741771 60.7723526 -42.12701327 57.12278587 -42.12132454 53.4730072 C-42.12117253 51.7412765 -42.12711564 50.00953288 -42.13961601 48.27784729 C-42.22922058 33.83636996 -40.51422195 19.44005271 -29.84765625 8.5625 C-21.04498218 1.36194861 -11.0612536 -0.25567374 0 0 Z " fill="#FCFCFC" transform="translate(343.625,580.625)"/>
<path d="M0 0 C21.78 0 43.56 0 66 0 C66 7.26 66 14.52 66 22 C54.78 22 43.56 22 32 22 C32 33.88 32 45.76 32 58 C40.58 58 49.16 58 58 58 C58 65.26 58 72.52 58 80 C49.75 80 41.5 80 33 80 C33 94.19 33 108.38 33 123 C43.89 123 54.78 123 66 123 C66 130.26 66 137.52 66 145 C44.22 145 22.44 145 0 145 C0 97.15 0 49.3 0 0 Z " fill="#F9F9F9" transform="translate(613,582)"/>
<path d="M0 0 C14.52 0 29.04 0 44 0 C44.01458252 3.95677734 44.02916504 7.91355469 44.04418945 11.99023438 C44.09453515 25.06606722 44.16098065 38.14177673 44.23571491 51.21749115 C44.28063172 59.14498055 44.32005581 67.07242545 44.34643555 75 C44.36944904 81.91173183 44.40288432 88.82332231 44.44870156 95.73494196 C44.47258879 99.39274836 44.49134695 103.05041517 44.49761391 106.70829773 C44.50481509 110.79727018 44.53528886 114.8857584 44.56762695 118.97460938 C44.56619186 120.18014465 44.56475677 121.38567993 44.5632782 122.62774658 C44.50928806 132.50782275 44.50928806 132.50782275 49 141 C54.17735677 141.37052339 54.17735677 141.37052339 59 140 C61.60916786 133.50755944 61.30659647 126.90677772 61.31884766 119.99633789 C61.33391609 118.04896729 61.33391609 118.04896729 61.34928894 116.06225586 C61.37648345 112.51940733 61.39170685 108.97659834 61.40471697 105.43367314 C61.42039392 101.72473342 61.44716949 98.01587386 61.4727478 94.30699158 C61.51945503 87.29135184 61.556238 80.27569689 61.58942068 73.25998157 C61.62769914 65.26959514 61.67709423 57.27928939 61.72740483 49.28897107 C61.83060483 32.85936658 61.91843656 16.42972831 62 0 C76.52 0 91.04 0 106 0 C106.09063531 17.04745567 106.16417553 34.09470255 106.20724869 51.14233303 C106.22778855 59.05957666 106.25574286 66.97665888 106.30175781 74.89379883 C106.34189065 81.80223796 106.36749496 88.71056007 106.37635398 95.61911255 C106.38152451 99.27006638 106.39349274 102.92068573 106.42292023 106.5715313 C106.72444186 145.51125806 106.72444186 145.51125806 97 159 C96.57074219 159.62003906 96.14148438 160.24007812 95.69921875 160.87890625 C88.93930522 169.69535685 78.95104011 173.26833175 68.453125 175.5546875 C51.31414082 177.76491849 33.10614933 177.46219783 18.25 167.76171875 C6.37668972 158.46508171 2.4558208 146.49882775 0.34724426 132.10667419 C-0.80792856 121.77174294 -0.49250159 111.3068549 -0.40557575 100.92326832 C-0.38015782 97.36129281 -0.37818894 93.79929587 -0.37347412 90.23724365 C-0.36116064 83.52645557 -0.32850107 76.81593568 -0.28807616 70.10526443 C-0.24299072 62.45081274 -0.22128009 54.7963466 -0.20129442 47.14179468 C-0.15975433 31.42768245 -0.0865525 15.71393858 0 0 Z M8 8 C7.9547036 23.40426187 7.91792424 38.80849033 7.89637566 54.21280098 C7.88610054 61.36666386 7.87211299 68.52048216 7.84912109 75.67431641 C7.82907109 81.91581342 7.81625628 88.15727812 7.81182301 94.39880645 C7.8092351 97.69800628 7.80215287 100.99709315 7.78853989 104.29626846 C6.70738777 133.77646471 6.70738777 133.77646471 19.79296875 159.0234375 C29.70774415 167.90286467 40.94420294 168.38086312 53.6875 168.4375 C54.97333984 168.47037109 56.25917969 168.50324219 57.58398438 168.53710938 C68.97984794 168.60045172 79.99361088 166.23687581 88.359375 157.9765625 C101.32594519 142.3549327 99.54827227 118.93784729 99.390625 99.9921875 C99.38314837 97.32747066 99.37726493 94.66279714 99.37347412 91.99807739 C99.36115579 85.75116249 99.32848938 79.50453536 99.28807616 73.25774586 C99.2430062 66.13295841 99.22128391 59.00815553 99.20129442 51.88326049 C99.15974335 37.25533886 99.0865349 22.62772684 99 8 C89.43 8 79.86 8 70 8 C69.98018066 11.64337402 69.96036133 15.28674805 69.93994141 19.04052734 C69.87295659 31.09453244 69.79541594 43.1484481 69.71247292 55.20235252 C69.66245409 62.50874129 69.61601041 69.81511944 69.578125 77.12158203 C69.54507626 83.49347929 69.50517498 89.86529146 69.45720994 96.23709452 C69.43207228 99.60765782 69.41025427 102.9781656 69.39665604 106.34879684 C69.37971037 110.1211634 69.35065469 113.89326077 69.31884766 117.66552734 C69.31668747 118.77036469 69.31452728 119.87520203 69.31230164 121.01351929 C69.12469649 138.49557754 69.12469649 138.49557754 64 145 C59.73692754 148.85051706 55.73440713 149.37971429 50.02734375 149.2734375 C46.51204361 148.79931224 44.58997658 147.34904853 42 145 C39.41677135 139.92261955 37.88099368 135.49237163 37.84178162 129.81782532 C37.8319928 128.74510376 37.82220398 127.6723822 37.81211853 126.56715393 C37.80348534 124.80201698 37.80348534 124.80201698 37.79467773 123.0012207 C37.78477814 121.76207916 37.77487854 120.52293762 37.76467896 119.24624634 C37.73848345 115.84777717 37.7166246 112.44933159 37.69667697 109.05082345 C37.67481176 105.49936662 37.64742569 101.94795251 37.62062073 98.39653015 C37.57070108 91.67116124 37.52575955 84.94576861 37.48259836 78.22035331 C37.43321977 70.56381117 37.37830395 62.9073119 37.32291877 55.25081122 C37.20910988 39.5005789 37.10299947 23.75030728 37 8 C27.43 8 17.86 8 8 8 Z " fill="#F6F6F6" transform="translate(390,370)"/>
<path d="M0 0 C14.19 0 28.38 0 43 0 C47.15687606 12.95967241 51.23592851 25.92115253 55 39 C56.95653509 36.06519737 57.58923152 34.21552232 58.40234375 30.84375 C58.65306641 29.82023437 58.90378906 28.79671875 59.16210938 27.7421875 C59.41798828 26.67226563 59.67386719 25.60234375 59.9375 24.5 C65.52149877 1.47850123 65.52149877 1.47850123 67 0 C70.02977804 -0.08871273 73.03667022 -0.1151935 76.06640625 -0.09765625 C76.97502914 -0.0962413 77.88365204 -0.09482635 78.81980896 -0.09336853 C81.73407221 -0.08775193 84.64825981 -0.07519665 87.5625 -0.0625 C89.53320202 -0.05748714 91.50390524 -0.05292386 93.47460938 -0.04882812 C98.31643559 -0.03777711 103.15820495 -0.02050138 108 0 C105.84175557 9.31090882 103.0465777 18.36577103 100.0625 27.4375 C99.19755319 30.08148881 98.33483118 32.72619992 97.47265625 35.37109375 C97.15795631 36.33498268 97.15795631 36.33498268 96.8368988 37.31834412 C94.81701416 43.52309467 92.90062404 49.75791013 91 56 C90.27334565 58.35494335 89.54456516 60.70923305 88.8125 63.0625 C88.63009262 63.6724884 88.44768524 64.28247681 88.25975037 64.91094971 C86.94381593 69.23354428 85.4563638 73.43343694 83.79394531 77.63549805 C76.35794769 97.23941369 75.71340567 115.45611711 75.91845703 136.22619629 C75.95647286 141.26451243 75.92598492 146.30288109 75.90778351 151.34124756 C75.88776246 158.89541764 75.9514682 166.44456962 76 174 C61.81 174 47.62 174 33 174 C33.05542969 169.11316406 33.11085938 164.22632813 33.16796875 159.19140625 C33.17862332 156.01473439 33.18590432 152.83871254 33.18164062 149.66210938 C33.17523808 144.66672802 33.17846236 139.67332931 33.25708008 134.6784668 C33.60105593 111.67195218 30.69937096 92.71071487 22.2502594 71.27227783 C20.60035975 66.95402993 19.28109716 62.58090129 18.0625 58.125 C16.5946697 52.95865821 14.92951739 47.95872341 13.03125 42.9375 C11.45123036 38.436838 10.17495852 33.85257281 8.85986328 29.26879883 C7.67475705 25.17666448 6.38657598 21.17413741 4.875 17.1875 C2.85070355 11.58694649 1.44433937 5.77735748 0 0 Z M11 8 C12.35162476 14.61091713 14.17935553 20.87429908 16.375 27.25 C17.00636093 29.11158866 17.63657362 30.97356715 18.265625 32.8359375 C18.56662109 33.72635742 18.86761719 34.61677734 19.17773438 35.53417969 C20.54414719 39.63179532 21.78918031 43.76421181 23.0390625 47.8984375 C24.13959502 51.4505628 25.31356324 54.975926 26.5 58.5 C28.35566531 64.017465 30.14160145 69.54724865 31.77124023 75.13623047 C32.61744993 77.92094927 33.62066251 80.5990535 34.70581055 83.29907227 C40.95933731 99.6117127 41.03055235 115.4536778 40.94421387 132.64215088 C40.9308481 137.0872401 40.96999135 141.53217318 40.99979401 145.97714233 C41.03893865 152.65212624 41.01357702 159.32398362 41 166 C49.91 166 58.82 166 68 166 C67.84724609 159.67134766 67.84724609 159.67134766 67.69140625 153.21484375 C67.17184933 119.1805518 69.29587196 90.07784964 82.0456543 58.03027344 C86.89131678 45.76391209 90.8806841 33.07071683 94.4375 20.375 C94.69208984 19.49328125 94.94667969 18.6115625 95.20898438 17.703125 C96.58286893 12.92699009 96.58286893 12.92699009 97 8 C89.08 8 81.16 8 73 8 C70.59394921 14.25806719 70.59394921 14.25806719 68.7890625 20.55859375 C68.50373657 21.74255737 68.50373657 21.74255737 68.21264648 22.95043945 C68.01872314 23.77116943 67.8247998 24.59189941 67.625 25.4375 C65.87424773 32.64808971 63.95304155 39.77339877 61.81616211 46.87841797 C59.71644805 53.87746483 57.84233979 60.92912046 56 68 C54.68475189 63.79252175 53.37277567 59.58402897 52.0625 55.375 C51.86358154 54.73639038 51.66466309 54.09778076 51.4597168 53.43981934 C49.07637467 45.78193793 46.72319703 38.11616153 44.43359375 30.4296875 C44.1251931 29.39519974 44.1251931 29.39519974 43.81056213 28.33981323 C42.81293293 24.99016694 41.81987331 21.63923825 40.83227539 18.28662109 C40.47512451 17.08344238 40.11797363 15.88026367 39.75 14.640625 C39.43546875 13.57360352 39.1209375 12.50658203 38.796875 11.40722656 C38.22476204 9.07507389 38.22476204 9.07507389 37 8 C35.07332493 7.91251793 33.14348139 7.89302666 31.21484375 7.90234375 C30.04501953 7.90556641 28.87519531 7.90878906 27.66992188 7.91210938 C26.43822266 7.92048828 25.20652344 7.92886719 23.9375 7.9375 C22.70193359 7.94201172 21.46636719 7.94652344 20.19335938 7.95117188 C17.12885883 7.96300392 14.06445279 7.97948827 11 8 Z " fill="#F4F4F4" transform="translate(681,370)"/>
<path d="M0 0 C26.07 0 52.14 0 79 0 C79 10.89 79 21.78 79 33 C67.45 33 55.9 33 44 33 C44 44.22 44 55.44 44 67 C54.23 67 64.46 67 75 67 C75 77.89 75 88.78 75 100 C64.77 100 54.54 100 44 100 C44 124.42 44 148.84 44 174 C29.48 174 14.96 174 0 174 C0 116.58 0 59.16 0 0 Z M8 9 C8 60.81 8 112.62 8 166 C17.57 166 27.14 166 37 166 C37 141.58 37 117.16 37 92 C46.9 92 56.8 92 67 92 C67 86.39 67 80.78 67 75 C57.1 75 47.2 75 37 75 C37 58.5 37 42 37 25 C48.22 25 59.44 25 71 25 C71 19.72 71 14.44 71 9 C50.21 9 29.42 9 8 9 Z " fill="#F1F1F1" transform="translate(303,370)"/>
<path d="M0 0 C14.85 0 29.7 0 45 0 C45 46.53 45 93.06 45 141 C57.54 141 70.08 141 83 141 C83 151.89 83 162.78 83 174 C55.61 174 28.22 174 0 174 C0 116.58 0 59.16 0 0 Z M8 8 C8 60.14 8 112.28 8 166 C30.11 166 52.22 166 75 166 C75 160.39 75 154.78 75 149 C62.46 149 49.92 149 37 149 C37 102.47 37 55.94 37 8 C27.43 8 17.86 8 8 8 Z " fill="#F1F1F1" transform="translate(602,370)"/>
<path d="M0 0 C14.52 0 29.04 0 44 0 C44 46.86 44 93.72 44 142 C56.54 142 69.08 142 82 142 C82 152.56 82 163.12 82 174 C54.94 174 27.88 174 0 174 C0 116.58 0 59.16 0 0 Z M8 9 C8 60.81 8 112.62 8 166 C29.78 166 51.56 166 74 166 C74 160.39 74 154.78 74 149 C61.46 149 48.92 149 36 149 C36 102.8 36 56.6 36 9 C26.76 9 17.52 9 8 9 Z " fill="#EFEFEF" transform="translate(512,370)"/>
<path d="M0 0 C3.7601902 1.4205163 4.75066031 2.52014722 6.61245728 6.10316467 C8.24505798 10.11970017 8.42349744 13.99307042 8.38818359 18.28686523 C8.39344055 19.08458344 8.39869751 19.88230164 8.40411377 20.70419312 C8.41724063 23.32253007 8.40860104 25.94025136 8.3984375 28.55859375 C8.40046054 30.39030574 8.4033739 32.22201695 8.40713501 34.0537262 C8.41154863 37.88591203 8.4051591 41.71788752 8.39111328 45.55004883 C8.37403411 50.44689173 8.38386065 55.34324082 8.40183067 60.24006557 C8.41270489 64.02089616 8.40920531 67.80161095 8.4014473 71.58244514 C8.39945471 73.38724896 8.40187128 75.1920635 8.40888596 76.99685478 C8.41655922 79.52609715 8.40481437 82.05455578 8.38818359 84.58374023 C8.39729263 85.6882679 8.39729263 85.6882679 8.40658569 86.81510925 C8.3423286 92.12657009 7.23633428 96.16092813 5 101 C1.66602694 103.22264871 0.40485109 103.29675463 -3.5 103.3125 C-4.4590625 103.32925781 -5.418125 103.34601563 -6.40625 103.36328125 C-9 103 -9 103 -10.71875 101.85546875 C-14.17194865 96.85464753 -14.29349046 91.39680405 -14.2746582 85.51953125 C-14.27976913 84.68948578 -14.28488007 83.85944031 -14.29014587 83.00424194 C-14.3039917 80.27358699 -14.30308915 77.54318578 -14.30078125 74.8125 C-14.3046704 72.907307 -14.30900552 71.00211485 -14.31376648 69.09692383 C-14.32121751 65.1091836 -14.32094511 61.12153194 -14.31567383 57.13378906 C-14.30987496 52.02936466 -14.32682571 46.92530261 -14.3500185 41.82093811 C-14.36476393 37.88836557 -14.36562653 33.9558802 -14.36250877 30.02328491 C-14.36302139 28.14146201 -14.36824789 26.25963415 -14.37832069 24.37783813 C-14.39068606 21.74514313 -14.3838934 19.11315285 -14.37231445 16.48046875 C-14.37995819 15.70730316 -14.38760193 14.93413757 -14.39547729 14.13754272 C-14.34906954 9.35277981 -13.59012178 6.03867779 -11 2 C-7.27799991 -0.48133339 -4.31021482 -0.52296148 0 0 Z " fill="#040404" transform="translate(449,603)"/>
<path d="M0 0 C13 0 13 0 18 3 C20.75874074 7.92973247 21.4335376 12.29156086 21.37231445 17.84375 C21.37596512 18.59430664 21.37961578 19.34486328 21.38337708 20.11816406 C21.39142893 22.57901214 21.3779177 25.03919051 21.36328125 27.5 C21.362762 29.2220052 21.36328222 30.944011 21.36479187 32.66601562 C21.36470239 36.26701765 21.3543219 39.86779468 21.33618164 43.46875 C21.31349543 48.07191397 21.31295302 52.6747496 21.31969929 57.2779541 C21.32304948 60.8314096 21.31638942 64.384791 21.30657005 67.93823242 C21.30273587 69.63500582 21.30156241 71.33178748 21.3031559 73.02856445 C21.30352903 75.40461784 21.29083756 77.78025891 21.2746582 80.15625 C21.27713562 80.84944336 21.27961304 81.54263672 21.28216553 82.25683594 C21.23302943 86.80515545 20.53871633 90.71910275 19 95 C12.79694027 101.04400692 9.34779779 100 0 100 C0 67 0 34 0 0 Z " fill="#070707" transform="translate(725,605)"/>
<path d="M0 0 C13.56521739 0 13.56521739 0 17.75 3.4375 C20.66240681 7.07800851 20.1545128 11.34504459 20.16113281 15.75683594 C20.16609772 16.54582275 20.17106262 17.33480957 20.17617798 18.14770508 C20.19079147 20.75993725 20.19760096 23.37210865 20.203125 25.984375 C20.20887801 27.80177817 20.21463573 29.61918133 20.22039795 31.43658447 C20.23090623 35.24971804 20.23674974 39.06283055 20.24023438 42.87597656 C20.24571259 47.75280688 20.26972693 52.6293571 20.29820633 57.5060997 C20.31686842 61.26199139 20.32204025 65.01781617 20.32357025 68.77375031 C20.32659026 70.57102232 20.33459675 72.36829334 20.34775543 74.16551971 C20.3648875 76.68575568 20.36291818 79.20531472 20.35644531 81.72558594 C20.3656601 82.46246643 20.37487488 83.19934692 20.3843689 83.95855713 C20.34319991 89.0980552 19.35561179 92.52520872 17 97 C11.40918635 101.33288058 7.75749249 100 0 100 C0 67 0 34 0 0 Z " fill="#010101" transform="translate(541,605)"/>
</svg>
